<svg xmlns="http://www.w3.org/2000/svg" width="178.6mm" height="117.1mm" viewBox="0 0 178.6 117.1">
<g fill="none" stroke="black" stroke-width="0.25">
<path d="M 72.431,58.120 L 72.286,58.306 L 71.258,59.608 L 71.104,59.785 L 70.007,61.029 L 69.842,61.198 L 68.679,62.380 L 68.506,62.539 L 67.279,63.656 L 67.098,63.806 L 65.812,64.853 L 65.622,64.994 L 64.282,65.969 L 64.085,66.099 L 62.693,67.000 L 62.489,67.119 L 61.050,67.942 L 60.840,68.049 L 59.357,68.793 L 59.142,68.889 L 57.621,69.550 L 57.401,69.634 L 55.847,70.211 L 55.622,70.283 L 54.038,70.775 L 53.810,70.834 L 52.202,71.238 L 51.971,71.285 L 51.778,71.323 L 50.382,71.594 L 49.958,71.657 L 48.550,71.851 L 48.123,71.894 L 46.707,72.010 L 46.278,72.031 L 44.857,72.070 L 44.428,72.070 L 43.007,72.031 L 42.579,72.010 L 41.162,71.894 L 40.735,71.851 L 39.327,71.657 L 38.903,71.594 L 37.508,71.323 L 37.084,71.238 L 35.476,70.834 L 35.247,70.775 L 33.664,70.283 L 33.439,70.211 L 31.885,69.634 L 31.664,69.550 L 30.144,68.889 L 29.928,68.793 L 28.446,68.049 L 28.236,67.942 L 26.797,67.119 L 26.593,67.000 L 25.201,66.099 L 25.004,65.969 L 23.663,64.994 L 23.473,64.853 L 22.188,63.806 L 22.006,63.656 L 20.780,62.539 L 20.607,62.380 L 19.443,61.198 L 19.279,61.029 L 18.182,59.785 L 18.027,59.608 L 17.000,58.306 L 16.855,58.120 L 15.900,56.764 L 15.765,56.571 L 14.886,55.165 L 14.762,54.964 L 13.961,53.512 L 13.849,53.305 L 13.128,51.811 L 13.027,51.598 L 12.389,50.068 L 12.300,49.850 L 11.747,48.286 L 11.669,48.064 L 11.202,46.472 L 11.137,46.246 L 10.758,44.632 L 10.705,44.402 L 10.415,42.769 L 10.375,42.537 L 10.174,40.891 L 10.147,40.657 L 10.036,39.002 L 10.022,38.767 L 10.002,37.109 L 10.000,36.873 L 10.071,35.216 L 10.082,34.981 L 10.244,33.330 L 10.267,33.096 L 10.519,31.457 L 10.555,31.224 L 10.896,29.601 L 10.945,29.370 L 11.374,27.768 L 11.436,27.541 L 11.952,25.965 L 12.025,25.741 L 12.627,24.196 L 12.713,23.976 L 13.398,22.466 L 13.495,22.251 L 14.262,20.781 L 14.371,20.572 L 15.217,19.146 L 15.337,18.943 L 16.260,17.565 L 16.391,17.369 L 17.388,16.044 L 17.529,15.855 L 18.360,15.069 L 18.524,14.912 L 19.300,14.129 L 19.456,13.966 L 20.180,13.189 L 20.853,12.421 L 21.001,12.250 L 21.624,11.493 L 21.764,11.316 L 22.340,10.574 L 22.871,9.848 L 23.003,9.663 L 23.490,8.958 L 23.935,8.276 L 24.058,8.083 L 24.463,7.426 L 24.830,6.798 L 24.944,6.597 L 25.275,6.000 L 25.571,5.437 L 25.834,4.911 L 25.939,4.702 L 26.392,3.734 L 26.617,3.218 L 26.712,3.000 L 26.942,2.448 L 27.175,1.858 L 27.261,1.632 L 27.495,1.003 L 27.730,0.335 L 27.964,-0.374 L 28.041,-0.608 L 28.272,-1.359 L 28.500,-2.153 L 28.568,-2.396 L 28.791,-3.234 L 29.008,-4.118 L 29.067,-4.367 L 29.277,-5.298 L 29.477,-6.276 L 29.529,-6.532 L 29.719,-7.559 L 29.898,-8.636 L 29.942,-8.899 L 30.108,-10.027 L 30.145,-10.297 L 30.297,-11.477 L 30.313,-11.556 L 30.425,-12.109 L 30.454,-12.184 L 30.653,-12.711 L 30.693,-12.781 L 30.975,-13.269 L 31.026,-13.332 L 31.382,-13.769 L 31.442,-13.822 L 31.864,-14.196 L 31.932,-14.239 L 32.408,-14.541 L 32.482,-14.573 L 33.001,-14.794 L 33.079,-14.813 L 33.626,-14.948 L 33.707,-14.955 L 34.269,-15.000 L 52.423,-15.000 L 55.017,-15.000 L 55.097,-14.994 L 55.659,-14.948 L 55.737,-14.929 L 56.285,-14.794 L 56.359,-14.762 L 56.877,-14.541 L 56.945,-14.498 L 57.422,-14.196 L 57.482,-14.143 L 57.904,-13.769 L 57.955,-13.706 L 58.311,-13.269 L 58.351,-13.200 L 58.633,-12.711 L 58.661,-12.636 L 58.860,-12.109 L 58.876,-12.030 L 58.988,-11.477 L 59.141,-10.297 L 59.177,-10.027 L 59.344,-8.899 L 59.387,-8.636 L 59.566,-7.559 L 59.757,-6.532 L 59.808,-6.276 L 60.009,-5.298 L 60.218,-4.367 L 60.278,-4.118 L 60.494,-3.234 L 60.718,-2.396 L 60.785,-2.153 L 61.013,-1.359 L 61.245,-0.608 L 61.321,-0.374 L 61.555,0.335 L 61.790,1.003 L 62.025,1.632 L 62.110,1.858 L 62.343,2.448 L 62.573,3.000 L 62.668,3.218 L 62.894,3.734 L 63.347,4.702 L 63.451,4.911 L 63.715,5.437 L 64.011,6.000 L 64.341,6.597 L 64.455,6.798 L 64.822,7.426 L 65.228,8.083 L 65.351,8.276 L 65.796,8.958 L 66.283,9.663 L 66.414,9.848 L 66.945,10.574 L 67.521,11.316 L 67.661,11.493 L 68.285,12.250 L 68.433,12.421 L 69.106,13.189 L 69.829,13.966 L 69.985,14.129 L 70.762,14.912 L 70.925,15.069 L 71.756,15.855 L 71.898,16.044 L 72.894,17.369 L 73.026,17.565 L 73.948,18.943 L 74.069,19.146 L 74.914,20.572 L 75.024,20.781 L 75.790,22.251 L 75.888,22.466 L 76.573,23.976 L 76.659,24.196 L 77.260,25.741 L 77.334,25.965 L 77.850,27.541 L 77.911,27.768 L 78.341,29.370 L 78.389,29.601 L 78.730,31.224 L 78.767,31.457 L 79.018,33.096 L 79.042,33.330 L 79.204,34.981 L 79.214,35.216 L 79.286,36.873 L 79.284,37.109 L 79.264,38.767 L 79.249,39.002 L 79.139,40.657 L 79.111,40.891 L 78.911,42.537 L 78.871,42.769 L 78.580,44.402 L 78.527,44.632 L 78.148,46.246 L 78.083,46.472 L 77.616,48.064 L 77.539,48.286 L 76.986,49.850 L 76.896,50.068 L 76.259,51.598 L 76.157,51.811 L 75.437,53.305 L 75.324,53.512 L 74.523,54.964 L 74.399,55.165 L 73.520,56.571 L 73.385,56.764 L 72.431,58.120 Z"/>
<path d="M 161.716,58.120 L 161.571,58.306 L 160.544,59.608 L 160.389,59.785 L 159.292,61.029 L 159.128,61.198 L 157.964,62.380 L 157.791,62.539 L 156.565,63.656 L 156.383,63.806 L 155.098,64.853 L 154.908,64.994 L 153.567,65.969 L 153.370,66.099 L 151.978,67.000 L 151.774,67.119 L 150.335,67.942 L 150.125,68.049 L 148.643,68.793 L 148.428,68.889 L 146.907,69.550 L 146.687,69.634 L 145.132,70.211 L 144.908,70.283 L 143.324,70.775 L 143.096,70.834 L 141.487,71.238 L 141.256,71.285 L 141.063,71.323 L 139.668,71.594 L 139.244,71.657 L 137.836,71.851 L 137.409,71.894 L 135.992,72.010 L 135.564,72.031 L 134.143,72.070 L 133.714,72.070 L 132.293,72.031 L 131.865,72.010 L 130.448,71.894 L 130.021,71.851 L 128.613,71.657 L 128.189,71.594 L 126.793,71.323 L 126.369,71.238 L 124.761,70.834 L 124.533,70.775 L 122.949,70.283 L 122.725,70.211 L 121.170,69.634 L 120.950,69.550 L 119.429,68.889 L 119.214,68.793 L 117.732,68.049 L 117.522,67.942 L 116.082,67.119 L 115.879,67.000 L 114.486,66.099 L 114.289,65.969 L 112.949,64.994 L 112.759,64.853 L 111.474,63.806 L 111.292,63.656 L 110.066,62.539 L 109.892,62.380 L 108.729,61.198 L 108.565,61.029 L 107.468,59.785 L 107.313,59.608 L 106.285,58.306 L 106.140,58.120 L 105.186,56.764 L 105.051,56.571 L 104.172,55.165 L 104.048,54.964 L 103.247,53.512 L 103.134,53.305 L 102.414,51.811 L 102.313,51.598 L 101.675,50.068 L 101.585,49.850 L 101.032,48.286 L 100.955,48.064 L 100.488,46.472 L 100.423,46.246 L 100.044,44.632 L 99.991,44.402 L 99.701,42.769 L 99.660,42.537 L 99.460,40.891 L 99.432,40.657 L 99.322,39.002 L 99.307,38.767 L 99.288,37.109 L 99.286,36.873 L 99.357,35.216 L 99.368,34.981 L 99.529,33.330 L 99.553,33.096 L 99.804,31.457 L 99.841,31.224 L 100.182,29.601 L 100.231,29.370 L 100.660,27.768 L 100.721,27.541 L 101.237,25.965 L 101.311,25.741 L 101.912,24.196 L 101.998,23.976 L 102.683,22.466 L 102.781,22.251 L 103.547,20.781 L 103.657,20.572 L 104.502,19.146 L 104.623,18.943 L 105.545,17.565 L 105.677,17.369 L 106.673,16.044 L 106.815,15.855 L 107.646,15.069 L 107.810,14.912 L 108.586,14.129 L 108.742,13.966 L 109.465,13.189 L 110.138,12.421 L 110.286,12.250 L 110.910,11.493 L 111.050,11.316 L 111.626,10.574 L 112.157,9.848 L 112.288,9.663 L 112.775,8.958 L 113.221,8.276 L 113.344,8.083 L 113.749,7.426 L 114.116,6.798 L 114.230,6.597 L 114.560,6.000 L 114.857,5.437 L 115.120,4.911 L 115.225,4.702 L 115.677,3.734 L 115.903,3.218 L 115.998,3.000 L 116.228,2.448 L 116.461,1.858 L 116.546,1.632 L 116.781,1.003 L 117.016,0.335 L 117.250,-0.374 L 117.326,-0.608 L 117.558,-1.359 L 117.786,-2.153 L 117.853,-2.396 L 118.077,-3.234 L 118.294,-4.118 L 118.353,-4.367 L 118.562,-5.298 L 118.763,-6.276 L 118.814,-6.532 L 119.005,-7.559 L 119.184,-8.636 L 119.227,-8.899 L 119.394,-10.027 L 119.430,-10.297 L 119.583,-11.477 L 119.599,-11.556 L 119.711,-12.109 L 119.739,-12.184 L 119.939,-12.711 L 119.979,-12.781 L 120.260,-13.269 L 120.311,-13.332 L 120.667,-13.769 L 120.728,-13.822 L 121.149,-14.196 L 121.217,-14.239 L 121.694,-14.541 L 121.768,-14.573 L 122.286,-14.794 L 122.365,-14.813 L 122.912,-14.948 L 122.992,-14.955 L 123.554,-15.000 L 141.709,-15.000 L 144.303,-15.000 L 144.383,-14.994 L 144.945,-14.948 L 145.023,-14.929 L 145.570,-14.794 L 145.644,-14.762 L 146.163,-14.541 L 146.231,-14.498 L 146.707,-14.196 L 146.768,-14.143 L 147.189,-13.769 L 147.240,-13.706 L 147.596,-13.269 L 147.637,-13.200 L 147.918,-12.711 L 147.947,-12.636 L 148.146,-12.109 L 148.162,-12.030 L 148.274,-11.477 L 148.426,-10.297 L 148.463,-10.027 L 148.629,-8.899 L 148.673,-8.636 L 148.852,-7.559 L 149.043,-6.532 L 149.094,-6.276 L 149.294,-5.298 L 149.504,-4.367 L 149.563,-4.118 L 149.780,-3.234 L 150.003,-2.396 L 150.071,-2.153 L 150.299,-1.359 L 150.530,-0.608 L 150.607,-0.374 L 150.841,0.335 L 151.076,1.003 L 151.310,1.632 L 151.396,1.858 L 151.629,2.448 L 151.859,3.000 L 151.954,3.218 L 152.179,3.734 L 152.632,4.702 L 152.737,4.911 L 153.000,5.437 L 153.296,6.000 L 153.627,6.597 L 153.741,6.798 L 154.108,7.426 L 154.513,8.083 L 154.636,8.276 L 155.081,8.958 L 155.568,9.663 L 155.700,9.848 L 156.231,10.574 L 156.807,11.316 L 156.947,11.493 L 157.570,12.250 L 157.719,12.421 L 158.391,13.189 L 159.115,13.966 L 159.271,14.129 L 160.047,14.912 L 160.211,15.069 L 161.042,15.855 L 161.184,16.044 L 162.180,17.369 L 162.311,17.565 L 163.234,18.943 L 163.354,19.146 L 164.200,20.572 L 164.309,20.781 L 165.076,22.251 L 165.173,22.466 L 165.858,23.976 L 165.944,24.196 L 166.546,25.741 L 166.619,25.965 L 167.136,27.541 L 167.197,27.768 L 167.626,29.370 L 167.675,29.601 L 168.016,31.224 L 168.052,31.457 L 168.304,33.096 L 168.327,33.330 L 168.489,34.981 L 168.500,35.216 L 168.571,36.873 L 168.569,37.109 L 168.550,38.767 L 168.535,39.002 L 168.425,40.657 L 168.397,40.891 L 168.196,42.537 L 168.156,42.769 L 167.866,44.402 L 167.813,44.632 L 167.434,46.246 L 167.369,46.472 L 166.902,48.064 L 166.824,48.286 L 166.271,49.850 L 166.182,50.068 L 165.544,51.598 L 165.443,51.811 L 164.722,53.305 L 164.610,53.512 L 163.809,54.964 L 163.685,55.165 L 162.806,56.571 L 162.671,56.764 L 161.716,58.120 Z"/>
<path d="M 39.560,68.885 L 40.107,68.145 L 40.107,64.569 L 36.643,62.569 L 33.179,64.569 L 33.179,68.569 L 36.643,70.569 L 39.560,68.885 Z"/>
<path d="M 128.420,68.548 L 128.888,67.916 L 128.888,64.859 L 125.927,63.149 L 122.966,64.859 L 122.966,68.278 L 125.927,69.988 L 128.420,68.548 Z"/>
<path d="M 49.179,68.145 L 49.179,64.569 L 52.643,62.569 L 56.107,64.569 L 56.107,68.569 L 52.643,70.569 L 49.726,68.885 L 49.179,68.145 Z"/>
<path d="M 138.964,67.918 L 138.964,64.856 L 141.930,63.143 L 144.896,64.856 L 144.896,68.281 L 141.930,69.993 L 139.432,68.551 L 138.964,67.918 Z"/>
<path d="M 24.643,55.641 L 21.179,57.641 L 21.179,61.641 L 24.643,63.641 L 28.107,61.641 L 28.107,57.641 L 24.643,55.641 Z"/>
<path d="M 113.928,56.241 L 110.984,57.941 L 110.984,61.341 L 113.928,63.041 L 116.873,61.341 L 116.873,57.941 L 113.928,56.241 Z"/>
<path d="M 36.107,61.641 L 32.643,63.641 L 29.179,61.641 L 29.179,57.641 L 32.643,55.641 L 36.107,57.641 L 36.107,61.641 Z"/>
<path d="M 125.075,61.458 L 121.928,63.275 L 118.781,61.458 L 118.781,57.824 L 121.928,56.007 L 125.075,57.824 L 125.075,61.458 Z"/>
<path d="M 40.643,55.641 L 37.179,57.641 L 37.179,61.641 L 40.643,63.641 L 44.107,61.641 L 44.107,57.641 L 40.643,55.641 Z"/>
<path d="M 129.928,56.222 L 126.967,57.931 L 126.967,61.351 L 129.928,63.060 L 132.889,61.351 L 132.889,57.931 L 129.928,56.222 Z"/>
<path d="M 48.643,55.641 L 45.179,57.641 L 45.179,61.641 L 48.643,63.641 L 52.107,61.641 L 52.107,57.641 L 48.643,55.641 Z"/>
<path d="M 137.928,56.216 L 134.962,57.929 L 134.962,61.354 L 137.928,63.066 L 140.894,61.354 L 140.894,57.929 L 137.928,56.216 Z"/>
<path d="M 56.643,55.641 L 60.107,57.641 L 60.107,61.641 L 56.643,63.641 L 53.179,61.641 L 53.179,57.641 L 56.643,55.641 Z"/>
<path d="M 145.928,56.000 L 149.081,57.821 L 149.081,61.461 L 145.928,63.282 L 142.775,61.461 L 142.775,57.821 L 145.928,56.000 Z"/>
<path d="M 64.643,55.641 L 61.179,57.641 L 61.179,61.641 L 64.643,63.641 L 68.107,61.641 L 68.107,57.641 L 64.643,55.641 Z"/>
<path d="M 153.928,56.240 L 150.983,57.940 L 150.983,61.342 L 153.928,63.042 L 156.874,61.342 L 156.874,57.940 L 153.928,56.240 Z"/>
<path d="M 17.179,54.713 L 17.179,50.713 L 20.643,48.713 L 24.107,50.713 L 24.107,54.713 L 20.643,56.713 L 17.179,54.713 Z"/>
<path d="M 106.521,54.680 L 106.521,50.746 L 109.928,48.778 L 113.336,50.746 L 113.336,54.680 L 109.928,56.647 L 106.521,54.680 Z"/>
<path d="M 28.643,48.713 L 32.107,50.713 L 32.107,54.713 L 28.643,56.713 L 25.179,54.713 L 25.179,50.713 L 28.643,48.713 Z"/>
<path d="M 117.928,49.313 L 120.873,51.013 L 120.873,54.413 L 117.928,56.112 L 114.984,54.413 L 114.984,51.013 L 117.928,49.313 Z"/>
<path d="M 33.179,54.713 L 33.179,50.713 L 36.643,48.713 L 40.107,50.713 L 40.107,54.713 L 36.643,56.713 L 33.179,54.713 Z"/>
<path d="M 122.797,54.521 L 122.797,50.905 L 125.928,49.097 L 129.060,50.905 L 129.060,54.521 L 125.928,56.329 L 122.797,54.521 Z"/>
<path d="M 41.179,54.713 L 41.179,50.713 L 44.643,48.713 L 48.107,50.713 L 48.107,54.713 L 44.643,56.713 L 41.179,54.713 Z"/>
<path d="M 130.786,54.527 L 130.786,50.899 L 133.928,49.084 L 137.071,50.899 L 137.071,54.527 L 133.928,56.341 L 130.786,54.527 Z"/>
<path d="M 49.179,54.713 L 49.179,50.713 L 52.643,48.713 L 56.107,50.713 L 56.107,54.713 L 52.643,56.713 L 49.179,54.713 Z"/>
<path d="M 138.791,54.524 L 138.791,50.901 L 141.928,49.090 L 145.066,50.901 L 145.066,54.524 L 141.928,56.336 L 138.791,54.524 Z"/>
<path d="M 57.179,50.713 L 60.643,48.713 L 64.107,50.713 L 64.107,54.713 L 60.643,56.713 L 57.179,54.713 L 57.179,50.713 Z"/>
<path d="M 146.983,51.012 L 149.928,49.311 L 152.874,51.012 L 152.874,54.414 L 149.928,56.114 L 146.983,54.414 L 146.983,51.012 Z"/>
<path d="M 65.179,54.713 L 65.179,50.713 L 68.643,48.713 L 72.107,50.713 L 72.107,54.713 L 68.643,56.713 L 65.179,54.713 Z"/>
<path d="M 154.528,54.676 L 154.528,50.749 L 157.928,48.786 L 161.329,50.749 L 161.329,54.676 L 157.928,56.640 L 154.528,54.676 Z"/>
<path d="M 16.643,41.785 L 13.179,43.785 L 13.179,47.785 L 16.643,49.785 L 20.107,47.785 L 20.107,43.785 L 16.643,41.785 Z"/>
<path d="M 105.928,42.263 L 102.878,44.024 L 102.878,47.546 L 105.928,49.307 L 108.978,47.546 L 108.978,44.024 L 105.928,42.263 Z"/>
<path d="M 24.643,41.785 L 21.179,43.785 L 21.179,47.785 L 24.643,49.785 L 28.107,47.785 L 28.107,43.785 L 24.643,41.785 Z"/>
<path d="M 113.928,42.263 L 110.878,44.024 L 110.878,47.546 L 113.928,49.307 L 116.978,47.546 L 116.978,44.024 L 113.928,42.263 Z"/>
<path d="M 29.179,47.785 L 32.643,49.785 L 36.107,47.785 L 36.107,43.785 L 32.643,41.785 L 29.179,43.785 L 29.179,47.785 Z"/>
<path d="M 118.816,47.582 L 121.928,49.379 L 125.041,47.582 L 125.041,43.987 L 121.928,42.190 L 118.816,43.987 L 118.816,47.582 Z"/>
<path d="M 40.643,41.785 L 37.179,43.785 L 37.179,47.785 L 40.643,49.785 L 44.107,47.785 L 44.107,43.785 L 40.643,41.785 Z"/>
<path d="M 129.928,42.201 L 126.825,43.993 L 126.825,47.577 L 129.928,49.368 L 133.032,47.577 L 133.032,43.993 L 129.928,42.201 Z"/>
<path d="M 48.643,41.785 L 45.179,43.785 L 45.179,47.785 L 48.643,49.785 L 52.107,47.785 L 52.107,43.785 L 48.643,41.785 Z"/>
<path d="M 137.928,42.187 L 134.812,43.986 L 134.812,47.584 L 137.928,49.383 L 141.044,47.584 L 141.044,43.986 L 137.928,42.187 Z"/>
<path d="M 60.107,43.785 L 56.643,41.785 L 53.179,43.785 L 53.179,47.785 L 56.643,49.785 L 60.107,47.785 L 60.107,43.785 Z"/>
<path d="M 149.050,43.982 L 145.928,42.180 L 142.807,43.982 L 142.807,47.587 L 145.928,49.389 L 149.050,47.587 L 149.050,43.982 Z"/>
<path d="M 64.643,41.785 L 61.179,43.785 L 61.179,47.785 L 64.643,49.785 L 68.107,47.785 L 68.107,43.785 L 64.643,41.785 Z"/>
<path d="M 153.928,42.232 L 150.852,44.008 L 150.852,47.561 L 153.928,49.337 L 157.005,47.561 L 157.005,44.008 L 153.928,42.232 Z"/>
<path d="M 72.643,41.785 L 69.179,43.785 L 69.179,47.785 L 72.643,49.785 L 76.107,47.785 L 76.107,43.785 L 72.643,41.785 Z"/>
<path d="M 161.928,42.232 L 158.852,44.008 L 158.852,47.561 L 161.928,49.337 L 165.005,47.561 L 165.005,44.008 L 161.928,42.232 Z"/>
<path d="M 17.179,40.856 L 17.179,36.856 L 20.643,34.856 L 24.107,36.856 L 24.107,40.856 L 20.643,42.856 L 17.179,40.856 Z"/>
<path d="M 106.757,40.687 L 106.757,37.025 L 109.928,35.194 L 113.100,37.025 L 113.100,40.687 L 109.928,42.518 L 106.757,40.687 Z"/>
<path d="M 25.179,40.856 L 25.179,36.856 L 28.643,34.856 L 32.107,36.856 L 32.107,40.856 L 28.643,42.856 L 25.179,40.856 Z"/>
<path d="M 114.732,40.702 L 114.732,37.011 L 117.928,35.165 L 121.125,37.011 L 121.125,40.702 L 117.928,42.548 L 114.732,40.702 Z"/>
<path d="M 33.179,40.856 L 33.179,36.856 L 36.643,34.856 L 40.107,36.856 L 40.107,40.856 L 36.643,42.856 L 33.179,40.856 Z"/>
<path d="M 122.822,40.650 L 122.822,37.063 L 125.928,35.269 L 129.035,37.063 L 129.035,40.650 L 125.928,42.443 L 122.822,40.650 Z"/>
<path d="M 41.179,40.856 L 41.179,36.856 L 44.643,34.856 L 48.107,36.856 L 48.107,40.856 L 44.643,42.856 L 41.179,40.856 Z"/>
<path d="M 130.825,40.648 L 130.825,37.064 L 133.928,35.273 L 137.032,37.064 L 137.032,40.648 L 133.928,42.440 L 130.825,40.648 Z"/>
<path d="M 49.179,40.856 L 49.179,36.856 L 52.643,34.856 L 56.107,36.856 L 56.107,40.856 L 52.643,42.856 L 49.179,40.856 Z"/>
<path d="M 138.806,40.659 L 138.806,37.054 L 141.928,35.251 L 145.050,37.054 L 145.050,40.659 L 141.928,42.461 L 138.806,40.659 Z"/>
<path d="M 65.179,40.856 L 65.179,36.856 L 68.643,34.856 L 72.107,36.856 L 72.107,40.856 L 68.643,42.856 L 65.179,40.856 Z"/>
<path d="M 154.741,40.696 L 154.741,37.016 L 157.928,35.176 L 161.115,37.016 L 161.115,40.696 L 157.928,42.536 L 154.741,40.696 Z"/>
<path d="M 57.179,40.856 L 57.179,36.856 L 59.746,35.374 L 60.643,34.856 L 64.107,36.856 L 64.107,40.856 L 60.643,42.856 L 57.179,40.856 Z"/>
<path d="M 146.743,40.696 L 146.743,37.017 L 149.104,35.654 L 149.928,35.178 L 153.114,37.017 L 153.114,40.696 L 149.928,42.535 L 146.743,40.696 Z"/>
<path d="M 16.643,35.928 L 13.179,33.928 L 13.179,29.928 L 16.643,27.928 L 20.107,29.928 L 20.107,33.928 L 16.643,35.928 Z"/>
<path d="M 105.928,35.427 L 102.898,33.678 L 102.898,30.179 L 105.928,28.429 L 108.959,30.179 L 108.959,33.678 L 105.928,35.427 Z"/>
<path d="M 24.643,35.928 L 21.179,33.928 L 21.179,29.928 L 24.643,27.928 L 28.107,29.928 L 28.107,33.928 L 24.643,35.928 Z"/>
<path d="M 113.928,35.427 L 110.898,33.678 L 110.898,30.179 L 113.928,28.429 L 116.959,30.179 L 116.959,33.678 L 113.928,35.427 Z"/>
<path d="M 32.643,27.928 L 29.179,29.928 L 29.179,33.928 L 32.643,35.928 L 36.107,33.928 L 36.107,29.928 L 32.643,27.928 Z"/>
<path d="M 121.928,28.306 L 118.791,30.117 L 118.791,33.739 L 121.928,35.551 L 125.065,33.739 L 125.065,30.117 L 121.928,28.306 Z"/>
<path d="M 40.643,35.928 L 37.179,33.928 L 37.179,29.928 L 40.643,27.928 L 44.107,29.928 L 44.107,33.928 L 40.643,35.928 Z"/>
<path d="M 129.928,35.515 L 126.822,33.722 L 126.822,30.135 L 129.928,28.341 L 133.035,30.135 L 133.035,33.722 L 129.928,35.515 Z"/>
<path d="M 48.643,35.928 L 45.179,33.928 L 45.179,29.928 L 48.643,27.928 L 52.107,29.928 L 52.107,33.928 L 48.643,35.928 Z"/>
<path d="M 137.928,35.506 L 134.830,33.717 L 134.830,30.139 L 137.928,28.350 L 141.027,30.139 L 141.027,33.717 L 137.928,35.506 Z"/>
<path d="M 56.643,35.928 L 53.179,33.928 L 53.179,29.928 L 56.643,27.928 L 60.107,29.928 L 60.107,33.928 L 56.643,35.928 Z"/>
<path d="M 145.928,35.548 L 142.794,33.738 L 142.794,30.119 L 145.928,28.309 L 149.063,30.119 L 149.063,33.738 L 145.928,35.548 Z"/>
<path d="M 64.643,35.928 L 61.179,33.928 L 61.179,29.928 L 64.643,27.928 L 68.107,29.928 L 68.107,33.928 L 64.643,35.928 Z"/>
<path d="M 153.928,35.505 L 150.831,33.716 L 150.831,30.140 L 153.928,28.352 L 157.026,30.140 L 157.026,33.716 L 153.928,35.505 Z"/>
<path d="M 72.643,35.928 L 69.179,33.928 L 69.179,29.928 L 72.643,27.928 L 76.107,29.928 L 76.107,33.928 L 72.643,35.928 Z"/>
<path d="M 161.928,35.505 L 158.831,33.716 L 158.831,30.140 L 161.928,28.352 L 165.026,30.140 L 165.026,33.716 L 161.928,35.505 Z"/>
<path d="M 17.179,27.000 L 17.179,23.000 L 20.643,21.000 L 24.107,23.000 L 24.107,27.000 L 20.643,29.000 L 17.179,27.000 Z"/>
<path d="M 106.543,26.955 L 106.543,23.045 L 109.928,21.091 L 113.314,23.045 L 113.314,26.955 L 109.928,28.909 L 106.543,26.955 Z"/>
<path d="M 32.107,27.000 L 28.643,29.000 L 25.179,27.000 L 25.179,23.000 L 28.643,21.000 L 32.107,23.000 L 32.107,27.000 Z"/>
<path d="M 121.156,26.863 L 117.928,28.727 L 114.701,26.863 L 114.701,23.137 L 117.928,21.273 L 121.156,23.137 L 121.156,26.863 Z"/>
<path d="M 33.179,27.000 L 33.179,23.000 L 36.643,21.000 L 40.107,23.000 L 40.107,27.000 L 36.643,29.000 L 33.179,27.000 Z"/>
<path d="M 122.793,26.810 L 122.793,23.190 L 125.928,21.379 L 129.064,23.190 L 129.064,26.810 L 125.928,28.621 L 122.793,26.810 Z"/>
<path d="M 41.179,27.000 L 41.179,23.000 L 44.643,21.000 L 48.107,23.000 L 48.107,27.000 L 44.643,29.000 L 41.179,27.000 Z"/>
<path d="M 130.850,26.777 L 130.850,23.223 L 133.928,21.446 L 137.006,23.223 L 137.006,26.777 L 133.928,28.554 L 130.850,26.777 Z"/>
<path d="M 49.179,27.000 L 49.179,23.000 L 52.643,21.000 L 56.107,23.000 L 56.107,27.000 L 52.643,29.000 L 49.179,27.000 Z"/>
<path d="M 138.800,26.806 L 138.800,23.194 L 141.928,21.387 L 145.057,23.194 L 145.057,26.806 L 141.928,28.613 L 138.800,26.806 Z"/>
<path d="M 60.643,21.000 L 57.179,23.000 L 57.179,27.000 L 60.643,29.000 L 64.107,27.000 L 64.107,23.000 L 60.643,21.000 Z"/>
<path d="M 149.928,21.353 L 146.770,23.176 L 146.770,26.824 L 149.928,28.647 L 153.087,26.824 L 153.087,23.176 L 149.928,21.353 Z"/>
<path d="M 65.179,27.000 L 65.179,23.000 L 68.643,21.000 L 72.107,23.000 L 72.107,27.000 L 68.643,29.000 L 65.179,27.000 Z"/>
<path d="M 154.770,26.824 L 154.770,23.176 L 157.928,21.353 L 161.087,23.176 L 161.087,26.824 L 157.928,28.647 L 154.770,26.824 Z"/>
<path d="M 24.643,14.072 L 21.179,16.072 L 21.179,20.072 L 24.643,22.072 L 28.107,20.072 L 28.107,16.072 L 24.643,14.072 Z"/>
<path d="M 113.928,14.196 L 110.572,16.134 L 110.572,20.010 L 113.928,21.948 L 117.285,20.010 L 117.285,16.134 L 113.928,14.196 Z"/>
<path d="M 29.179,16.072 L 32.643,14.072 L 36.107,16.072 L 36.107,20.072 L 32.643,22.072 L 29.179,20.072 L 29.179,16.072 Z"/>
<path d="M 118.773,16.250 L 121.928,14.428 L 125.084,16.250 L 125.084,19.894 L 121.928,21.715 L 118.773,19.894 L 118.773,16.250 Z"/>
<path d="M 40.643,14.072 L 37.179,16.072 L 37.179,20.072 L 40.643,22.072 L 44.107,20.072 L 44.107,16.072 L 40.643,14.072 Z"/>
<path d="M 129.928,14.564 L 126.890,16.318 L 126.890,19.826 L 129.928,21.580 L 132.966,19.826 L 132.966,16.318 L 129.928,14.564 Z"/>
<path d="M 48.643,14.072 L 45.179,16.072 L 45.179,20.072 L 48.643,22.072 L 52.107,20.072 L 52.107,16.072 L 48.643,14.072 Z"/>
<path d="M 137.928,14.459 L 134.800,16.265 L 134.800,19.878 L 137.928,21.685 L 141.057,19.878 L 141.057,16.265 L 137.928,14.459 Z"/>
<path d="M 56.643,22.072 L 60.107,20.072 L 60.107,16.072 L 56.643,14.072 L 53.179,16.072 L 53.179,20.072 L 56.643,22.072 Z"/>
<path d="M 145.928,21.804 L 149.160,19.938 L 149.160,16.206 L 145.928,14.340 L 142.696,16.206 L 142.696,19.938 L 145.928,21.804 Z"/>
<path d="M 64.643,14.072 L 61.179,16.072 L 61.179,20.072 L 64.643,22.072 L 68.107,20.072 L 68.107,16.072 L 64.643,14.072 Z"/>
<path d="M 153.928,14.103 L 150.491,16.087 L 150.491,20.056 L 153.928,22.041 L 157.366,20.056 L 157.366,16.087 L 153.928,14.103 Z"/>
<path d="M 25.179,13.144 L 25.179,9.144 L 28.643,7.144 L 32.107,9.144 L 32.107,13.144 L 28.643,15.144 L 25.179,13.144 Z"/>
<path d="M 114.803,12.948 L 114.803,9.339 L 117.928,7.535 L 121.053,9.339 L 121.053,12.948 L 117.928,14.752 L 114.803,12.948 Z"/>
<path d="M 33.179,13.144 L 33.179,9.144 L 36.643,7.144 L 40.107,9.144 L 40.107,13.144 L 36.643,15.144 L 33.179,13.144 Z"/>
<path d="M 123.015,12.826 L 123.015,9.462 L 125.928,7.779 L 128.842,9.462 L 128.842,12.826 L 125.928,14.508 L 123.015,12.826 Z"/>
<path d="M 41.179,13.144 L 41.179,9.144 L 44.643,7.144 L 48.107,9.144 L 48.107,13.144 L 44.643,15.144 L 41.179,13.144 Z"/>
<path d="M 130.794,12.953 L 130.794,9.334 L 133.928,7.524 L 137.063,9.334 L 137.063,12.953 L 133.928,14.763 L 130.794,12.953 Z"/>
<path d="M 49.179,13.144 L 49.179,9.144 L 52.643,7.144 L 56.107,9.144 L 56.107,13.144 L 52.643,15.144 L 49.179,13.144 Z"/>
<path d="M 138.745,12.981 L 138.745,9.306 L 141.928,7.468 L 145.112,9.306 L 145.112,12.981 L 141.928,14.819 L 138.745,12.981 Z"/>
<path d="M 60.643,15.144 L 57.179,13.144 L 57.179,9.144 L 60.643,7.144 L 64.107,9.144 L 64.107,13.144 L 60.643,15.144 Z"/>
<path d="M 149.928,14.936 L 146.644,13.040 L 146.644,9.247 L 149.928,7.351 L 153.213,9.247 L 153.213,13.040 L 149.928,14.936 Z"/>
<path d="M 40.643,0.215 L 37.179,2.215 L 37.179,6.215 L 40.643,8.215 L 44.107,6.215 L 44.107,2.215 L 40.643,0.215 Z"/>
<path d="M 129.928,0.533 L 126.740,2.374 L 126.740,6.056 L 129.928,7.897 L 133.117,6.056 L 133.117,2.374 L 129.928,0.533 Z"/>
<path d="M 48.643,0.215 L 45.179,2.215 L 45.179,6.215 L 48.643,8.215 L 52.107,6.215 L 52.107,2.215 L 48.643,0.215 Z"/>
<path d="M 137.928,0.679 L 134.865,2.447 L 134.865,5.984 L 137.928,7.752 L 140.991,5.984 L 140.991,2.447 L 137.928,0.679 Z"/>
<path d="M 53.179,6.215 L 56.643,8.215 L 60.107,6.215 L 60.107,2.215 L 56.643,0.215 L 53.179,2.215 L 53.179,6.215 Z"/>
<path d="M 142.853,5.991 L 145.928,7.766 L 149.004,5.991 L 149.004,2.440 L 145.928,0.664 L 142.853,2.440 L 142.853,5.991 Z"/>
<path d="M 32.684,8.191 L 29.179,6.215 L 29.179,2.215 L 32.643,0.215 L 36.107,2.215 L 36.107,6.215 L 32.684,8.191 Z"/>
<path d="M 121.964,7.558 L 119.015,5.896 L 119.015,2.532 L 121.929,0.850 L 124.842,2.532 L 124.842,5.896 L 121.964,7.558 Z"/>
<path d="M 49.179,-0.713 L 49.179,-4.713 L 52.643,-6.713 L 56.107,-4.713 L 56.107,-0.713 L 54.774,0.057 L 52.643,1.287 L 49.179,-0.713 Z"/>
<path d="M 138.866,-0.944 L 138.866,-4.481 L 141.928,-6.249 L 144.991,-4.481 L 144.991,-0.944 L 143.813,-0.264 L 141.928,0.824 L 138.866,-0.944 Z"/>
<path d="M 33.179,-4.713 L 36.643,-6.713 L 40.107,-4.713 L 40.107,-0.713 L 36.643,1.287 L 33.179,-0.713 L 33.179,-4.713 Z"/>
<path d="M 122.633,-4.615 L 125.928,-6.518 L 129.224,-4.615 L 129.224,-0.810 L 125.928,1.092 L 122.633,-0.810 L 122.633,-4.615 Z"/>
<path d="M 41.179,-0.713 L 41.179,-4.713 L 44.643,-6.713 L 48.107,-4.713 L 48.107,-0.713 L 44.643,1.287 L 41.179,-0.713 Z"/>
<path d="M 130.688,-0.842 L 130.688,-4.584 L 133.928,-6.454 L 137.169,-4.584 L 137.169,-0.842 L 133.928,1.029 L 130.688,-0.842 Z"/>
<path d="M 40.643,-5.641 L 37.179,-7.641 L 37.179,-11.641 L 40.643,-13.641 L 44.107,-11.641 L 44.107,-7.641 L 40.643,-5.641 Z"/>
<path d="M 129.928,-5.851 L 126.646,-7.746 L 126.646,-11.536 L 129.928,-13.431 L 133.211,-11.536 L 133.211,-7.746 L 129.928,-5.851 Z"/>
<path d="M 48.643,-13.641 L 52.107,-11.641 L 52.107,-7.641 L 48.643,-5.641 L 45.179,-7.641 L 45.179,-11.641 L 48.643,-13.641 Z"/>
<path d="M 137.928,-13.454 L 141.231,-11.548 L 141.231,-7.734 L 137.928,-5.828 L 134.626,-7.734 L 134.626,-11.548 L 137.928,-13.454 Z"/>
</g>
<text x="10" y="10" font-size="4">HAB-2 → Mold — atual</text>
<text x="99.29" y="10" font-size="4">HAB-2 → Mold — candidato v0.1</text>
</svg>